<svg width="25" height="24" viewBox="0 0 25 24" fill="none" xmlns="http://www.w3.org/2000/svg">
<path d="M12.5127 2.25C13.2466 2.25846 13.9777 2.34326 14.6942 2.50304C15.0069 2.57279 15.2408 2.83351 15.2763 3.15196L15.4465 4.67881C15.5235 5.37986 16.1155 5.91084 16.8211 5.91158C17.0108 5.91188 17.1984 5.87238 17.3737 5.79483L18.7743 5.17956C19.0656 5.05159 19.406 5.12136 19.6234 5.35362C20.6356 6.43464 21.3894 7.73115 21.8282 9.14558C21.9228 9.45058 21.8139 9.78203 21.5568 9.9715L20.3154 10.8866C19.9612 11.1468 19.7521 11.56 19.7521 11.9995C19.7521 12.4389 19.9612 12.8521 20.3161 13.1129L21.5587 14.0283C21.8158 14.2177 21.9248 14.5492 21.8302 14.8543C21.3916 16.2685 20.6382 17.5649 19.6266 18.6461C19.4093 18.8783 19.0693 18.9483 18.778 18.8206L17.3716 18.2045C16.9693 18.0284 16.5072 18.0542 16.127 18.274C15.7468 18.4937 15.4938 18.8812 15.4454 19.3177L15.2764 20.8444C15.2415 21.1592 15.0126 21.4182 14.7045 21.4915C13.2561 21.8361 11.747 21.8361 10.2985 21.4915C9.99039 21.4182 9.76153 21.1592 9.72667 20.8444L9.55785 19.32C9.50826 18.8843 9.25483 18.498 8.87491 18.279C8.495 18.06 8.03369 18.0343 7.63269 18.2094L6.22606 18.8256C5.93471 18.9533 5.59452 18.8833 5.37727 18.6509C4.36511 17.5685 3.61168 16.2705 3.17369 14.8548C3.07935 14.5499 3.18835 14.2186 3.44533 14.0293L4.68867 13.1133C5.04281 12.8531 5.25196 12.4399 5.25196 12.0005C5.25196 11.561 5.04281 11.1478 4.6882 10.8873L3.44565 9.97285C3.18828 9.78345 3.07918 9.45178 3.17386 9.14658C3.61261 7.73215 4.36643 6.43564 5.37861 5.35462C5.59608 5.12236 5.93643 5.05259 6.22773 5.18056L7.62811 5.79572C8.03105 5.97256 8.49429 5.94585 8.87626 5.72269C9.25658 5.50209 9.50977 5.11422 9.55866 4.67764L9.72873 3.15196C9.76425 2.83335 9.99835 2.57254 10.3113 2.50294C11.0286 2.34342 11.7604 2.25865 12.5127 2.25ZM12.5002 8.99995C10.8433 8.99995 9.50018 10.3431 9.50018 12C9.50018 13.6568 10.8433 15 12.5002 15C14.157 15 15.5002 13.6568 15.5002 12C15.5002 10.3431 14.157 8.99995 12.5002 8.99995Z" fill="#B2B7C7"/>
</svg>
