<svg width="25" height="24" viewBox="0 0 25 24" fill="none" xmlns="http://www.w3.org/2000/svg">
<path d="M10.75 4.25C11.1642 4.25 11.5 4.58579 11.5 5V13H19.5C19.8797 13 20.1935 13.2822 20.2432 13.6482L20.25 13.75C20.25 18.7206 16.2206 22.25 11.25 22.25C6.27944 22.25 2.25 18.2206 2.25 13.25C2.25 8.27944 5.77944 4.25 10.75 4.25ZM13.75 1.75C18.7206 1.75 22.75 5.77944 22.75 10.75C22.75 11.1642 22.4142 11.5 22 11.5H13.75C13.3358 11.5 13 11.1642 13 10.75V2.5C13 2.08579 13.3358 1.75 13.75 1.75Z" fill="#B2B7C7"/>
</svg>
